HIERARCHY
ROOT Hips
{
	OFFSET 0.000000 0.000000 0.000000
	CHANNELS 6 Xposition Yposition Zposition Xrotation Yrotation Zrotation
	JOINT LeftUpLeg_virtual
	{
		OFFSET 0.000000 0.000000 0.000000
		CHANNELS 3 Xrotation Yrotation Zrotation
		JOINT LeftUpLeg
		{
			OFFSET 15.427100 -6.655098 0.678600
			CHANNELS 3 Xrotation Yrotation Zrotation
			JOINT LeftLeg
			{
				OFFSET 4.081073 -39.591068 13.024000
				CHANNELS 3 Xrotation Yrotation Zrotation
				JOINT LeftFoot
				{
					OFFSET -4.081074 -37.707932 -15.979700
					CHANNELS 3 Xrotation Yrotation Zrotation
					JOINT LeftToeBase
					{
						OFFSET 5.346399 -15.068900 20.645000
						CHANNELS 3 Xrotation Yrotation Zrotation
						JOINT LeftToe_End
						{
							OFFSET 2.754700 0.931300 11.300900
							CHANNELS 3 Xrotation Yrotation Zrotation
							End Site
							{
								OFFSET 0 0 0
							}
						}
					}
				}
			}
		}
	}
	JOINT RightUpLeg_virtual
	{
		OFFSET 0.000000 0.000000 0.000000
		CHANNELS 3 Xrotation Yrotation Zrotation
		JOINT RightUpLeg
		{
			OFFSET -15.569500 -6.655098 0.678600
			CHANNELS 3 Xrotation Yrotation Zrotation
			JOINT RightLeg
			{
				OFFSET -4.081825 -39.591045 13.023800
				CHANNELS 3 Xrotation Yrotation Zrotation
				JOINT RightFoot
				{
					OFFSET 4.081824 -37.707954 -15.979600
					CHANNELS 3 Xrotation Yrotation Zrotation
					JOINT RightToeBase
					{
						OFFSET -5.346400 -15.068900 20.645000
						CHANNELS 3 Xrotation Yrotation Zrotation
						JOINT RightToe_End
						{
							OFFSET -2.754700 0.931300 11.300900
							CHANNELS 3 Xrotation Yrotation Zrotation
							End Site
							{
								OFFSET 0 0 0
							}
						}
					}
				}
			}
		}
	}
	JOINT Spine_virtual
	{
		OFFSET 0.000000 0.000000 0.000000
		CHANNELS 3 Xrotation Yrotation Zrotation
		JOINT Spine
		{
			OFFSET -0.279200 12.230698 -2.892100
			CHANNELS 3 Xrotation Yrotation Zrotation
			JOINT Spine1
			{
				OFFSET -0.232667 10.192268 -1.242267
				CHANNELS 3 Xrotation Yrotation Zrotation
				JOINT Spine1_split
				{
					OFFSET -0.232667 10.192268 -1.242267
					CHANNELS 3 Xrotation Yrotation Zrotation
					JOINT Spine2
					{
						OFFSET -0.232667 10.192268 -1.242267
						CHANNELS 3 Xrotation Yrotation Zrotation
						JOINT Neck_virtual
						{
							OFFSET 0.000000 0.000000 0.000000
							CHANNELS 3 Xrotation Yrotation Zrotation
							JOINT Neck
							{
								OFFSET -0.418800 17.814194 8.416900
								CHANNELS 3 Xrotation Yrotation Zrotation
								JOINT Head
								{
									OFFSET 0.000000 7.031097 3.806800
									CHANNELS 3 Xrotation Yrotation Zrotation
									JOINT HeadTop_End
									{
										OFFSET 0.000000 24.646606 12.978600
										CHANNELS 3 Xrotation Yrotation Zrotation
										End Site
										{
											OFFSET 0 0 0
										}
									}
								}
							}
						}
						JOINT LeftShoulder_virtual
						{
							OFFSET 0.000000 0.000000 0.000000
							CHANNELS 3 Xrotation Yrotation Zrotation
							JOINT LeftShoulder
							{
								OFFSET 8.476499 7.247704 -3.868750
								CHANNELS 3 Xrotation Yrotation Zrotation
								JOINT LeftShoulder_split
								{
									OFFSET 8.476499 7.247704 -3.868750
									CHANNELS 3 Xrotation Yrotation Zrotation
									JOINT LeftArm
									{
										OFFSET 9.308998 -2.777710 0.208600
										CHANNELS 3 Xrotation Yrotation Zrotation
										JOINT LeftForeArm
										{
											OFFSET 29.972298 0.000000 0.000000
											CHANNELS 3 Xrotation Yrotation Zrotation
											JOINT LeftHand
											{
												OFFSET 26.026505 0.000000 0.000000
												CHANNELS 3 Xrotation Yrotation Zrotation
												End Site
												{
													OFFSET 0 0 0
												}
											}
										}
									}
								}
							}
						}
						JOINT RightShoulder_virtual
						{
							OFFSET 0.000000 0.000000 0.000000
							CHANNELS 3 Xrotation Yrotation Zrotation
							JOINT RightShoulder
							{
								OFFSET -7.570500 7.247704 -3.868750
								CHANNELS 3 Xrotation Yrotation Zrotation
								JOINT RightShoulder_split
								{
									OFFSET -7.570500 7.247704 -3.868750
									CHANNELS 3 Xrotation Yrotation Zrotation
									JOINT RightArm
									{
										OFFSET -9.308998 -2.777710 0.208500
										CHANNELS 3 Xrotation Yrotation Zrotation
										JOINT RightForeArm
										{
											OFFSET -29.972300 0.000000 0.000000
											CHANNELS 3 Xrotation Yrotation Zrotation
											JOINT RightHand
											{
												OFFSET -26.026505 0.000000 0.000000
												CHANNELS 3 Xrotation Yrotation Zrotation
												End Site
												{
													OFFSET 0 0 0
												}
											}
										}
									}
								}
							}
						}
					}
				}
			}
		}
	}
}
MOTION
Frames: 8
Frame Time: 0.03333333
2.973642 86.390182 1.063900 0.000000 0.000000 0.000000 179.529323 50.721343 177.925786 -22.430761 -7.371383 11.939798 24.974433 -3.813506 0.789134 -1.200174 -1.354172 -10.752264 -12.283820 2.696249 -1.248843 0.000000 0.000000 0.000000 176.192106 45.263278 -179.235379 -11.492610 -3.110106 -16.539756 41.392022 -2.243545 -0.562709 -16.770469 -8.423517 14.957083 7.607421 0.356222 0.399394 0.000000 0.000000 0.000000 179.272440 50.812117 178.441930 6.646780 0.714871 9.403456 16.544856 0.334261 -0.698392 8.742301 13.642832 -1.587600 0.000000 0.000000 0.000000 17.117559 0.015055 -2.200903 -29.654236 -4.414063 -2.607702 -3.992932 -7.058069 6.184683 0.000000 0.000000 0.000000 19.319441 -0.355787 -1.536235 4.541455 -13.812150 -14.730172 -14.334728 -13.833636 -2.440904 22.363113 2.533689 -29.313297 44.308199 -74.388062 31.610225 0.000000 0.000000 0.000000 18.512774 0.906006 -1.239339 -0.472364 6.415620 -4.812437 10.116200 2.327099 -0.833861 -19.255338 -20.377432 67.584886 6.600014 58.263788 -8.234814 0.000000 0.000000 0.000000 
3.073555 85.848808 1.009407 0.000000 0.000000 0.000000 178.923294 51.132845 177.424600 -22.750739 -5.938958 12.546071 26.818649 -3.839450 1.000099 -1.235283 -1.429721 -10.527188 -11.461353 2.968003 -1.945929 0.000000 0.000000 0.000000 175.327582 45.826359 -179.442703 -13.696309 -3.017619 -16.056188 41.070279 -2.394759 0.331940 -16.112034 -7.808969 14.150279 8.100738 0.506097 0.628759 0.000000 0.000000 0.000000 177.529252 50.990729 178.551308 7.163576 0.120964 9.339384 16.423724 0.079460 -0.752329 7.107594 12.650328 -3.564887 0.000000 0.000000 0.000000 16.379270 -0.252480 -1.947180 -27.498401 -4.784121 -3.340424 -2.612441 -6.845638 5.954443 0.000000 0.000000 0.000000 18.945512 -0.684110 -1.814809 4.207020 -15.228503 -14.306546 -11.254444 -12.363694 -2.386422 20.200660 2.521294 -28.540678 40.208518 -72.765707 27.391652 0.000000 0.000000 0.000000 18.762019 0.901714 -1.357658 -0.496977 8.023635 -3.981424 10.937045 -0.348089 0.036357 -20.233131 -20.327758 66.891540 5.768081 57.294513 -7.071530 0.000000 0.000000 0.000000 
2.891279 84.420807 0.351337 0.000000 0.000000 0.000000 175.786639 53.347770 178.855416 -24.178960 -4.137583 14.434104 30.352384 -3.260318 1.498384 -3.125140 -0.327496 -10.796197 -10.322605 3.533626 -2.533456 0.000000 0.000000 0.000000 172.490075 48.045712 -178.354571 -19.407868 -1.389715 -14.692816 42.515312 -1.400809 1.808678 -12.483338 -6.113949 14.949693 6.995026 0.732548 0.489267 0.000000 0.000000 0.000000 173.623778 52.886817 -179.917182 7.653364 -0.432495 8.971999 15.714293 -0.116851 -0.657744 6.059882 9.881130 -2.633837 0.000000 0.000000 0.000000 14.915403 -0.577892 -1.509416 -24.140764 -5.402278 -3.539564 -0.763286 -8.826986 7.136407 0.000000 0.000000 0.000000 17.954925 -0.982990 -2.050152 3.467724 -16.741632 -13.157547 -9.375435 -9.978396 -3.151376 19.834904 0.125359 -24.595288 35.691997 -69.644939 22.178125 0.000000 0.000000 0.000000 18.532193 0.924593 -1.270987 -0.576186 9.394762 -3.363058 10.217031 -3.009237 0.877731 -20.731955 -16.419165 64.238783 4.597118 52.131699 -4.980472 0.000000 0.000000 0.000000 
2.326714 82.509415 -0.806076 0.000000 0.000000 0.000000 170.176431 56.962412 -177.613592 -26.730741 -2.072387 17.287274 35.029096 -2.177956 2.052383 -7.408221 1.686060 -12.001652 -9.738917 4.226771 -2.678167 0.000000 0.000000 0.000000 167.563501 51.308569 -175.251739 -27.164685 1.455753 -12.092070 45.400657 0.082070 3.231651 -8.600611 -3.849750 15.520770 5.105464 1.000133 0.192436 0.000000 0.000000 0.000000 167.452005 55.760865 -176.166329 8.165064 -0.774440 8.273734 14.668454 -0.189134 -0.540151 4.496797 6.919759 -0.473659 0.000000 0.000000 0.000000 13.186367 -0.812700 -1.101551 -20.706089 -6.124616 -2.962793 0.291817 -12.087261 9.237892 0.000000 0.000000 0.000000 16.681689 -1.105271 -2.259656 2.466729 -18.148086 -11.464905 -7.918617 -6.809744 -3.971295 21.230101 -2.063877 -19.100165 33.882700 -67.398285 19.249654 0.000000 0.000000 0.000000 17.866445 0.909238 -1.084153 -0.705786 9.828890 -3.497602 8.392333 -4.152770 1.482358 -19.796115 -10.289639 61.373703 4.086332 44.931607 -3.052832 0.000000 0.000000 0.000000 
1.756271 80.218292 -2.257381 0.000000 0.000000 0.000000 162.065936 60.418685 -171.399554 -30.519392 -0.139710 20.831030 39.810581 -0.925773 2.406700 -13.428160 3.835892 -14.212577 -9.901947 4.845350 -2.434402 0.000000 0.000000 0.000000 160.864492 55.068960 -170.278351 -35.984756 4.740285 -8.566311 49.180125 1.082088 4.318189 -6.341107 -1.814914 13.809201 5.014442 1.281115 0.086422 0.000000 0.000000 0.000000 158.882112 59.049362 -169.566085 8.659646 -0.775413 7.192470 13.606331 -0.169748 -0.507879 2.983617 4.778729 1.970873 0.000000 0.000000 0.000000 11.877412 -0.910456 -0.885156 -18.732268 -6.727299 -1.982344 -0.703225 -16.066031 11.637245 0.000000 0.000000 0.000000 15.422600 -1.024048 -2.466633 1.403507 -19.218134 -9.451367 -6.788388 -3.147896 -4.213670 22.705082 -1.337650 -14.558926 34.841987 -67.834570 19.101394 0.000000 0.000000 0.000000 17.083095 0.847666 -0.971420 -0.960972 8.995223 -4.638962 6.053004 -3.295004 1.937379 -17.669363 -5.369670 59.317099 4.211058 37.581381 -1.534322 0.000000 0.000000 0.000000 
1.240535 77.807487 -2.822083 0.000000 0.000000 0.000000 152.287496 62.524918 -162.810987 -36.259104 0.530459 25.041133 44.902548 -0.489006 2.191961 -18.083204 5.334662 -18.787479 -10.898593 5.349216 -1.750118 0.000000 0.000000 0.000000 152.653075 58.311217 -163.081312 -44.946634 7.742965 -5.415265 53.305679 1.436331 5.335194 -5.456233 0.102236 10.099499 6.592995 1.501329 0.226930 0.000000 0.000000 0.000000 148.378592 61.961693 -160.286003 9.267062 -0.503585 5.916744 12.767457 -0.118916 -0.669788 1.520100 1.955567 3.759229 0.000000 0.000000 0.000000 11.482015 -0.855242 -0.957567 -19.120855 -7.151016 -1.018795 -4.402628 -19.771825 13.388682 0.000000 0.000000 0.000000 14.604567 -0.858483 -2.751643 0.486296 -19.428839 -7.253337 -5.963810 0.590750 -4.721957 22.582892 3.087312 -12.908812 39.752439 -71.934494 23.274064 0.000000 0.000000 0.000000 16.528327 0.673309 -1.062545 -1.482702 6.758698 -6.721078 2.889328 -0.811538 2.857735 -15.159284 -5.082160 58.751361 4.790713 31.438582 -0.635093 0.000000 0.000000 0.000000 
0.687299 75.239250 -2.690548 0.000000 0.000000 0.000000 142.707568 63.275999 -153.799932 -43.006457 -0.893150 29.529705 50.642038 -1.686003 1.612528 -18.523123 6.177891 -25.893309 -12.809463 5.962279 -0.503255 0.000000 0.000000 0.000000 144.343795 60.033360 -155.225857 -53.585768 10.494983 -3.641802 57.464574 2.051718 6.291893 -4.604901 2.771020 6.909351 7.210907 1.615593 0.470579 0.000000 0.000000 0.000000 137.342345 63.771926 -149.685426 10.030055 -0.105366 4.532522 12.335517 -0.130535 -1.037117 -0.098207 -1.041207 3.518363 0.000000 0.000000 0.000000 12.035198 -0.723883 -1.323618 -21.940241 -7.302656 -0.434615 -10.554111 -22.957838 14.018053 0.000000 0.000000 0.000000 14.515819 -0.655233 -3.213959 -0.092224 -18.745157 -5.271480 -5.873884 3.139492 -6.332335 21.346320 11.012385 -14.871238 54.037178 -78.075735 37.398930 0.000000 0.000000 0.000000 16.386575 0.439147 -1.453299 -2.118785 3.947616 -9.012571 -1.335357 2.867151 4.331582 -13.539008 -12.196851 59.749832 5.038887 26.789498 -0.046475 0.000000 0.000000 0.000000 
0.234792 72.147537 -1.948032 0.000000 0.000000 0.000000 135.410577 62.782102 -146.362443 -49.035677 -3.102578 33.023155 55.463533 -2.525260 0.141630 -18.061605 7.558223 -29.852523 -13.975496 6.714491 0.455516 0.000000 0.000000 0.000000 137.300545 60.519513 -148.328964 -61.118957 12.864608 -4.219679 61.426528 3.493022 7.198081 -3.157847 6.494544 5.792955 4.998316 1.573934 0.541453 0.000000 0.000000 0.000000 127.172221 64.573606 -139.382291 10.862688 0.282281 3.251395 12.449971 -0.346562 -1.488600 -1.197701 -2.125303 3.165426 0.000000 0.000000 0.000000 13.352106 -0.690160 -1.889967 -26.513949 -7.327878 -0.589423 -18.124721 -25.377389 13.702474 0.000000 0.000000 0.000000 15.199211 -0.572608 -3.772420 -0.205265 -17.468812 -3.810048 -6.901122 2.561246 -9.328046 21.276384 21.429867 -20.676296 90.878037 -82.115539 74.690058 0.000000 0.000000 0.000000 16.833295 0.235256 -2.033839 -2.861166 1.235356 -10.520068 -4.404073 6.689054 6.379427 -13.977314 -25.948456 60.454537 4.508789 24.373503 0.299537 0.000000 0.000000 0.000000 
